# xmcd
#
# Track frame offsets: 
#        150
#        23596
#        41157
#        60336
#        74325
#        102436
#        121362
#
# Disc length: 1949 seconds
#
# Revision: 0
# Processed by: cddbd v1.5.2PL0 Copyright (c) Steve Scherf et al.
# Submitted via: ExactAudioCopy v0.95b3
#
DISCID=59079b07
DTITLE=Curtis Mayfield  - Sweet Exorcist
DYEAR=1900
DGENRE=
TTITLE0=Ain't Got Time
TTITLE1=Sweet Exorcist
TTITLE2=To Be Invisible
TTITLE3=Power To The People
TTITLE4=Kung Fu
TTITLE5=Suffer
TTITLE6=Make Me Believe In You
EXTD=
EXTT0=
EXTT1=
EXTT2=
EXTT3=
EXTT4=
EXTT5=
EXTT6=
PLAYORDER=
